<?xml version="1.0" standalone="no"?>
<!DOCTYPE svg PUBLIC "-//W3C//DTD SVG 20010904//EN"
 "http://www.w3.org/TR/2001/REC-SVG-20010904/DTD/svg10.dtd">
<svg version="1.0" xmlns="http://www.w3.org/2000/svg"
 width="512.000000pt" height="512.000000pt" viewBox="0 0 512.000000 512.000000"
 preserveAspectRatio="xMidYMid meet">
<metadata>
Created by potrace 1.11, written by Peter Selinger 2001-2013
</metadata>
<g transform="translate(0.000000,512.000000) scale(0.100000,-0.100000)"
fill="#000000" stroke="none">
<path d="M2325 4820 c-33 -5 -81 -11 -106 -14 -193 -23 -485 -117 -689 -222
-116 -60 -273 -157 -340 -210 -96 -77 -160 -133 -235 -209 -226 -228 -351
-416 -505 -760 -27 -61 -92 -274 -109 -360 -41 -206 -46 -257 -46 -490 0 -243
16 -380 66 -565 12 -41 22 -82 24 -90 15 -58 76 -214 124 -315 185 -386 464
-703 829 -939 57 -37 111 -70 120 -73 9 -4 37 -19 62 -33 131 -76 461 -190
624 -214 21 -4 48 -8 60 -11 100 -22 501 -29 631 -10 165 23 179 26 294 56
337 89 649 251 911 474 43 37 204 197 247 246 46 54 163 215 210 290 139 223
264 558 303 809 6 41 14 86 17 100 9 47 12 455 3 520 -24 169 -24 175 -45 269
-9 41 -20 82 -26 92 -5 11 -8 19 -5 19 4 0 -42 141 -76 230 -7 19 -41 92 -75
162 -267 538 -738 948 -1314 1143 -85 29 -250 72 -304 80 -11 1 -42 6 -70 10
-27 3 -61 9 -75 12 -43 9 -442 11 -505 3z"/>
</g>
</svg>
